<svg xmlns="http://www.w3.org/2000/svg" viewBox="0 0 1369.97 179.22"><defs><style>.cls-1{fill:#54cafc;}.cls-2{fill:#f6f6f6;}</style></defs><g id="Layer_2" data-name="Layer 2"><g id="Layer_1-2" data-name="Layer 1"><path class="cls-1" d="M265.2,96.76c-1.79,29.94-19.4,56.76-45.68,71.29-1.28.71-2.59,1.39-3.91,2l-3.64,1.8-.08.05-.12.06-.17.08-1.23.5c-.24-.1-.4-.08-.46,0a3.43,3.43,0,0,1-1.72.63.4.4,0,0,0-.34.28c-.61.22-1.27.46-2,.7l-.11,0c-.85.29-1.78.59-2.78.89a.81.81,0,0,0-.56.17q-1.22.36-2.55.72a2,2,0,0,0-.85.09,2.3,2.3,0,0,0-.76.33q-1.76.45-3.69.87c-3.18.57-6.33,1.14-9.56,1.46-.75.08-1.51.14-2.28.19a100.62,100.62,0,0,1-16.77-.26c-.45,0-.89-.1-1.34-.15h0a89.76,89.76,0,0,1-36-12.47,88.17,88.17,0,0,1-25-22.59A86.4,86.4,0,0,1,86.58,99.9a62.82,62.82,0,0,1-.37-7.71c0-.67.2-1.28.2-2V3.47a.18.18,0,0,1,.18-.18h34.57c.26,0,.39.12.39.38q0,43.52,0,87a52.45,52.45,0,0,0,8.82,29.56,54.58,54.58,0,0,0,48.77,24.21c27-1.53,48.73-22.5,50.92-48.89a53,53,0,0,0-20.08-46,54.42,54.42,0,0,0-19.91-10,15.3,15.3,0,0,0-2.1-.43.29.29,0,0,0-.35.33,10.6,10.6,0,0,1,.1,1.5V91.12a.32.32,0,0,1-.33.32H157a.39.39,0,0,1-.44-.43V3.61a.3.3,0,0,1,.31-.3q8.7,0,17.72,0c2,0,3.92-.15,5.9,0a89.6,89.6,0,0,1,74.34,46.51A86.5,86.5,0,0,1,265.2,96.76Z"/><path class="cls-1" d="M106.22,174.43c-2.44.42-4.84.87-7.37,1.09a100.79,100.79,0,0,1-20.74-.24c-1.84-.23-3.85-.64-5.81-.95-.76-.12-1.52-.27-2.27-.44a89.62,89.62,0,0,1-44.14-24A87,87,0,0,1,0,89.32,12,12,0,0,1,.07,88h0a10.34,10.34,0,0,0,0-1.85.36.36,0,0,0,0-.11V84.4a.22.22,0,0,0,0-.16V83.17a.35.35,0,0,0,0-.18V81.35a.51.51,0,0,0,.07-.24L.18.39A.35.35,0,0,1,.58,0H35.05a.25.25,0,0,1,.25.25q0,42,0,86.27c0,2.34.05,4.5.16,6.5,1.42,26.2,14.83,50.17,36.39,65.84a90,90,0,0,0,34.38,15.2C106.87,174.2,106.87,174.32,106.22,174.43Z"/><line class="cls-1" x1="0.07" y1="87.97" x2="0.06" y2="91.45"/><line class="cls-1" x1="0.07" y1="86" x2="0.07" y2="87.96"/><line class="cls-1" x1="0.07" y1="82.99" x2="0.07" y2="84.4"/><line class="cls-1" x1="0.18" y1="0.39" x2="0.08" y2="81.35"/><path class="cls-2" d="M547.48,26.77,498.67,175.94H461.59l-32.81-101-33.89,101H358L309,26.77h35.8l33.67,104.85L413.65,26.77h32l34.1,105.7,34.73-105.7Z"/><path class="cls-2" d="M662.13,128H575.4c3.2,14.28,15.34,23,32.82,23,12.15,0,20.88-3.62,28.77-11.08l17.69,19.18C644,171.25,628,177.65,607.37,177.65c-39.64,0-65.43-24.94-65.43-59,0-34.31,26.21-59,61.16-59,33.67,0,59.67,22.59,59.67,59.45C662.77,121.6,662.35,125.22,662.13,128ZM575,108.6h56.48c-2.35-14.49-13.22-23.87-28.13-23.87C588.19,84.73,577.32,93.9,575,108.6Z"/><path class="cls-2" d="M804.49,118.62c0,36-24.93,59-57.11,59-15.34,0-27.7-4.91-36-14.92v13.21H679.61V17.82h33.25V73.44c8.52-9.38,20.24-13.85,34.52-13.85C779.56,59.59,804.49,82.6,804.49,118.62Zm-33.67,0c0-19.82-12.57-31.76-29.2-31.76s-29.19,11.94-29.19,31.76,12.57,31.75,29.19,31.75S770.82,138.43,770.82,118.62Z"/><path class="cls-2" d="M931.72,100.5h20.45v58.18c-14.91,12.57-35.58,19-56.47,19-45.82,0-79.49-32.18-79.49-76.3s33.67-76.29,79.92-76.29c23.65,0,43.68,7.89,57.32,23L940.24,61.29C927.88,49.36,913.82,44,897,44c-34.52,0-59.46,24.08-59.46,57.32,0,32.82,24.94,57.33,59.25,57.33,12.57,0,24.29-2.77,35-9.59Z"/><path class="cls-2" d="M981,28.05A13.47,13.47,0,0,1,994.8,14.62c7.88,0,13.85,5.75,13.85,13A13.39,13.39,0,0,1,994.8,41.26C986.91,41.26,981,35.51,981,28.05Zm3.62,35H1005V175.94H984.57Z"/><path class="cls-2" d="M1145.89,110.94v65h-20.46V113.29c0-22.16-11.08-33-30.47-33-21.74,0-35.8,13-35.8,37.5v58.18H1038.7V63h19.6V80c8.31-11.5,22.8-18.11,40.71-18.11C1126.5,61.93,1145.89,77.7,1145.89,110.94Z"/><path class="cls-2" d="M1280.79,126.29h-91.64c2.56,19.82,18.54,33,40.92,33,13.21,0,24.29-4.48,32.6-13.64l11.3,13.21c-10.23,11.94-25.79,18.33-44.54,18.33-36.44,0-60.74-24.08-60.74-57.75,0-33.46,24.08-57.54,56.69-57.54s55.83,23.44,55.83,58.18C1281.21,121.81,1281,124.37,1280.79,126.29Zm-91.64-14.71h72.46c-2.14-19-16.41-32.39-36.23-32.39C1205.77,79.19,1191.28,92.4,1189.15,111.58Z"/><circle class="cls-1" cx="1343.03" cy="139.18" r="26.94"/></g></g></svg>