<svg xmlns="http://www.w3.org/2000/svg" viewBox="0 0 517.05 349.21"><defs><style>.cls-1{fill:#54cafc;}</style></defs><g id="Layer_2" data-name="Layer 2"><g id="Layer_1-2" data-name="Layer 1"><path class="cls-1" d="M516.72,188.54c-3.47,58.33-37.78,110.6-89,138.91-2.49,1.38-5,2.7-7.6,4-2.34,1.14-4.7,2.3-7.1,3.49a.38.38,0,0,0-.15.12l-.25.1-.33.15c-.49.21-1.3.56-2.38,1-.48-.2-.79-.16-.92.09a6.53,6.53,0,0,1-3.33,1.23.79.79,0,0,0-.67.55c-1.18.43-2.48.89-3.89,1.37l-.22.07q-2.49.84-5.42,1.74a1.62,1.62,0,0,0-1.09.31c-1.57.48-3.24,1-5,1.42a4.06,4.06,0,0,0-1.65.17,4.27,4.27,0,0,0-1.47.65c-2.28.58-4.69,1.15-7.19,1.69-6.2,1.11-12.34,2.22-18.63,2.85q-2.2.22-4.44.36a196.58,196.58,0,0,1-32.68-.49l-2.61-.31h0a174.65,174.65,0,0,1-70.08-24.3,172,172,0,0,1-48.66-44,168.51,168.51,0,0,1-33.27-85,121.35,121.35,0,0,1-.71-15c0-1.3.38-2.5.38-3.83V6.76a.35.35,0,0,1,.35-.35h67.36a.65.65,0,0,1,.75.73q0,84.81,0,169.6A102,102,0,0,0,254,234.34a106.32,106.32,0,0,0,95,47.18c52.51-3,95-43.85,99.21-95.27,2.87-34.52-11.68-67.57-39.13-89.54a106,106,0,0,0-38.78-19.5,31.32,31.32,0,0,0-4.1-.84.59.59,0,0,0-.68.66,21.66,21.66,0,0,1,.19,2.91q0,48.77,0,97.6a.63.63,0,0,1-.64.63H305.92a.74.74,0,0,1-.84-.83V7a.59.59,0,0,1,.6-.59q16.95-.06,34.52,0c3.86,0,7.63-.3,11.5-.07q50.87,3,91,30.8A174.28,174.28,0,0,1,496.55,97,168.63,168.63,0,0,1,516.72,188.54Z"/><path class="cls-1" d="M207,339.88c-4.75.81-9.43,1.69-14.35,2.12a195.54,195.54,0,0,1-40.42-.48c-3.59-.43-7.5-1.24-11.31-1.84-1.48-.24-3-.52-4.43-.85a174.77,174.77,0,0,1-86-46.85A169.5,169.5,0,0,1,0,174c0-.9.06-1.77.13-2.64h0a18.81,18.81,0,0,0,.08-3.61.74.74,0,0,0-.07-.21v-3.11a.51.51,0,0,0,.1-.32v-2.09a.74.74,0,0,0-.08-.34v-3.2A.88.88,0,0,0,.28,158L.35.76A.68.68,0,0,1,1.12,0H68.3a.48.48,0,0,1,.48.48q.07,81.8,0,168.1,0,6.82.31,12.65C71.84,232.29,98,279,140,309.53a175.17,175.17,0,0,0,67,29.61C208.24,339.42,208.23,339.66,207,339.88Z"/><line class="cls-1" x1="0.13" y1="171.4" x2="0.13" y2="178.19"/><line class="cls-1" x1="0.14" y1="167.57" x2="0.13" y2="171.39"/><line class="cls-1" x1="0.15" y1="161.71" x2="0.14" y2="164.46"/><line class="cls-1" x1="0.35" y1="0.76" x2="0.15" y2="158.51"/></g></g></svg>